<?xml version="1.0" encoding="UTF-8" standalone="no"?>
<!-- Created with Inkscape (http://www.inkscape.org/) -->

<svg
   xmlns:dc="http://purl.org/dc/elements/1.1/"
   xmlns:cc="http://creativecommons.org/ns#"
   xmlns:rdf="http://www.w3.org/1999/02/22-rdf-syntax-ns#"
   xmlns:svg="http://www.w3.org/2000/svg"
   xmlns="http://www.w3.org/2000/svg"
   xmlns:sodipodi="http://sodipodi.sourceforge.net/DTD/sodipodi-0.dtd"
   xmlns:inkscape="http://www.inkscape.org/namespaces/inkscape"
   width="54"
   height="50"
   viewBox="0 0 16.933333 15.875"
   version="1.1"
   id="svg1661"
   inkscape:version="0.92.3 (2405546, 2018-03-11)"
   sodipodi:docname="diofe_pequeno.svg">
  <defs
     id="defs1655" />
  <sodipodi:namedview
     id="base"
     pagecolor="#ffffff"
     bordercolor="#666666"
     borderopacity="1.0"
     inkscape:pageopacity="0.0"
     inkscape:pageshadow="2"
     inkscape:zoom="5.6"
     inkscape:cx="0.10313533"
     inkscape:cy="55.322853"
     inkscape:document-units="mm"
     inkscape:current-layer="layer1"
     showgrid="false"
     inkscape:window-width="1920"
     inkscape:window-height="1021"
     inkscape:window-x="0"
     inkscape:window-y="0"
     inkscape:window-maximized="1"
     inkscape:snap-global="false"
     units="px" />
  <metadata
     id="metadata1658">
    <rdf:RDF>
      <cc:Work
         rdf:about="">
        <dc:format>image/svg+xml</dc:format>
        <dc:type
           rdf:resource="http://purl.org/dc/dcmitype/StillImage" />
        <dc:title></dc:title>
      </cc:Work>
    </rdf:RDF>
  </metadata>
  <g
     inkscape:label="Camada 1"
     inkscape:groupmode="layer"
     id="layer1"
     transform="translate(0,-281.12498)">
    <g
       id="g1039"
       transform="matrix(0.96930803,0,0,1,-70.031645,132.18771)">
      <path
         style="display:inline;fill:none;fill-opacity:1;fill-rule:evenodd;stroke:#599bc1;stroke-width:0.74499846;stroke-linecap:butt;stroke-linejoin:round;stroke-miterlimit:4;stroke-dasharray:none;stroke-opacity:1"
         d="m 78.857636,155.84839 c 0,0 -1.305847,1.44528 -0.534599,1.79557 0.61938,0.28131 3.029393,-0.86139 3.856747,-1.40734 0.827355,-0.54596 2.749365,-2.20807 2.914837,-2.6691 0.267299,-0.43676 0.161492,-0.77147 -0.02546,-0.83712 -0.483686,-0.16985 -0.903728,-0.0728 -1.311041,0.0485 -0.407311,0.12132 -1.540152,0.7158 -1.540152,0.7158 v 0"
         id="path1118"
         inkscape:connector-curvature="0"
         sodipodi:nodetypes="csccsccc" />
      <path
         inkscape:connector-curvature="0"
         id="path1503"
         d="m 79.312219,154.37865 c -0.0523,-0.01 -0.09038,-0.0307 -0.08655,-0.0471 0.0038,-0.0161 -0.07745,-0.14448 -0.09136,-0.14448 -0.0053,0 -0.02268,0.005 -0.03853,0.0104 -0.02663,0.01 -0.03708,0.003 -0.137402,-0.0875 -0.05972,-0.0538 -0.146586,-0.12993 -0.193033,-0.16909 -0.079,-0.0666 -0.106273,-0.0992 -0.176038,-0.21076 -0.0161,-0.0257 -0.05238,-0.0596 -0.08619,-0.0803 l -0.05839,-0.0359 v -0.0799 c 0,-0.0765 0.01148,-0.11721 0.03781,-0.13397 0.0067,-0.004 0.0354,-0.008 0.0637,-0.008 0.02831,-9e-5 0.05644,-0.006 0.06253,-0.0134 0.0061,-0.007 0.01371,-0.0562 0.01694,-0.10865 0.0033,-0.0538 0.0133,-0.10927 0.0229,-0.12721 0.01159,-0.0217 0.01919,-0.0791 0.02385,-0.18021 0.0061,-0.13279 0.03919,-1.43917 0.03919,-1.54789 0,-0.043 -0.0016,-0.0448 -0.08283,-0.0938 -0.08736,-0.0528 -0.139841,-0.10252 -0.139252,-0.13207 5.62e-4,-0.0282 0.02741,-0.055 0.10157,-0.10158 0.06408,-0.0402 0.07401,-0.0521 0.137252,-0.16422 0.0375,-0.0665 0.09356,-0.14779 0.12458,-0.18072 0.07359,-0.0781 0.2028,-0.16252 0.302986,-0.19791 0.09141,-0.0323 0.106574,-0.0489 0.129287,-0.14172 0.0177,-0.0723 0.04218,-0.12364 0.07188,-0.15072 0.01578,-0.0144 0.02163,-0.0447 0.02868,-0.14841 0.0077,-0.11344 0.0099,-0.12346 0.01671,-0.0773 0.0043,0.0291 0.0083,0.0792 0.0089,0.1113 7.59e-4,0.044 0.01035,0.076 0.03907,0.13033 0.02502,0.0474 0.04062,0.0949 0.04555,0.13868 l 0.0075,0.0667 0.16815,0.0769 c 0.157465,0.072 0.173853,0.0824 0.257873,0.16344 0.04935,0.0476 0.108462,0.11752 0.131369,0.15541 0.02291,0.0379 0.08706,0.11551 0.142564,0.17248 0.08539,0.0876 0.09986,0.10757 0.09406,0.12959 -0.0075,0.0283 -0.06513,0.0851 -0.165012,0.16255 l -0.06391,0.0495 -4.4e-5,0.50017 c -4.4e-5,0.46726 0.0012,0.50052 0.01942,0.50552 0.01071,0.003 0.102015,0.0179 0.202911,0.0333 0.100897,0.0154 0.184797,0.0293 0.186445,0.0309 0.0016,0.002 -0.0068,0.0148 -0.01886,0.0293 -0.01915,0.0232 -0.02283,0.0506 -0.02972,0.22158 l -0.0079,0.1951 -0.131013,0.18698 c -0.07206,0.10283 -0.171723,0.24117 -0.221479,0.30742 -0.05885,0.0783 -0.12168,0.18158 -0.179767,0.29536 l -0.0893,0.17491 0.0064,0.14398 0.0064,0.14398 -0.05289,0.0626 c -0.119861,0.14181 -0.271912,0.19772 -0.447006,0.16435 z"
         style="display:inline;opacity:0.70499998;fill:#599bc1;fill-opacity:1;fill-rule:nonzero;stroke:none;stroke-width:0.15451001;stroke-linecap:butt;stroke-linejoin:round;stroke-miterlimit:4;stroke-dasharray:none;stroke-opacity:1" />
      <path
         style="display:inline;fill:#599bc1;fill-opacity:1;fill-rule:evenodd;stroke:none;stroke-width:0.03479508px;stroke-linecap:butt;stroke-linejoin:miter;stroke-opacity:1"
         d="m 77.52116,155.25402 -0.598242,-0.0243 -0.07637,-0.41249 0.114557,-0.10919 0.01273,-0.43676 -0.07637,-0.0971 v -0.57022 l 0.05091,-0.10919 0.572785,0.77647 0.78917,0.097 c 0,0 0.165471,-0.25477 0.25457,-0.2669 0.0891,-0.0121 0.165472,0.12132 0.165472,0.12132 l 0.152741,0.0243 0.0891,-0.12132 0.140014,-0.0485 0.0891,0.13346 c 0,0 -0.03818,0.0728 0.203657,0.0728 0.241842,0 0.381856,-0.24265 0.381856,-0.24265 l -0.01273,-0.27904 0.178199,-0.35183 0.216385,-0.29118 0.229114,-0.32757 0.01273,-0.38823 0.127286,-0.14559 c 0,0 0.305484,-0.35183 0.43277,-0.59448 0.127285,-0.24264 0.369127,-0.82499 0.432769,-0.89778 0.06364,-0.0728 0.140015,-0.0485 0.140015,-0.0485 l 0.101828,0.14559 0.05092,-0.35184 -0.101829,-0.12132 0.02546,-0.27904 0.190927,-0.0243 0.0891,0.29118 0.203657,0.12132 0.470956,0.35183 0.03818,0.30331 0.03819,0.12132 -0.03819,0.0607 -0.07637,0.33971 -0.02545,0.097 -0.06364,0.0971 0.0891,0.16985 0.02546,0.24265 0.165472,-0.3761 0.06364,-0.4125 0.03818,-0.10919 0.06364,-0.0243 0.06364,0.80073 -0.02546,0.3761 0.0891,0.10919 -0.01273,0.64301 0.06364,0.12132 0.06364,0.14558 0.140014,0.12133 0.03818,0.29117 0.649156,0.55808 0.305485,0.0121 0.292757,-0.0485 0.267298,0.12132 0.330943,0.0971 0.178199,0.23051 v 0.12132 l -0.114556,0.0607 -0.03819,0.29117 -0.06364,0.12132 -0.216384,0.0121 -0.229115,0.0728 -0.101827,0.0364 -0.1782,-0.0607 -0.114556,-0.0364 -0.292756,0.29117 0.280027,-0.0607 0.1782,-0.0849 h 0.114557 l 0.152742,0.0607 0.152743,-0.0364 0.03818,-0.0728 0.07637,-0.0364 0.152742,0.0485 -0.02546,0.18198 -0.738254,0.58235 -0.05092,0.21838 0.01273,0.15772 -0.25457,0.24264 -0.190929,0.13346 -0.292756,0.23051 -0.521871,0.57022 -0.190928,0.3397 -0.165471,0.24264 -0.101828,0.25478 -0.229112,0.20625 -0.127286,0.3397 0.02546,0.15772 -0.0891,0.12132 -0.203657,0.12133 -0.203657,0.10919 -0.229114,0.0485 -0.292756,-0.0364 -0.420042,-0.48529 -0.25457,-0.47316 -0.152742,-0.40036 -0.241843,-0.48529 -0.216386,-0.33971 -0.25457,-0.27904 -0.114558,-0.18198 v -0.31544 l -0.216385,-0.19411 -0.07637,-0.25478 -0.0891,-0.13346 -0.203657,-0.26691 -0.16547,-0.23051 -0.152743,-0.0971 -0.61097,0.0243 c 0,0 -0.165471,-0.12132 -0.216386,-0.14559 -0.05091,-0.0243 -0.356399,-0.3761 -0.356399,-0.3761 z"
         id="path1289"
         inkscape:connector-curvature="0" />
      <g
         style="fill:#599bc1;fill-opacity:1"
         transform="matrix(0.08322492,0,0,0.07932606,72.202671,144.36404)"
         id="g1341">
        <path
           sodipodi:nodetypes="cscccsc"
           inkscape:connector-curvature="0"
           id="path1293"
           d="m 23.210582,97.633705 c 0,0 5.000954,-5.776518 6.082412,-5.992818 1.08146,-0.216301 5.829014,-1.157929 7.126766,-0.725345 1.297747,0.432569 5.191005,4.758414 5.191005,4.758414 0,0 -4.758422,2.595508 -6.705051,3.676961 -1.946624,1.081473 -4.54213,2.162923 -6.705048,1.297753 -2.162921,-0.865168 -4.990084,-3.014965 -4.990084,-3.014965 z"
           style="fill:#599bc1;fill-opacity:1;fill-rule:evenodd;stroke:none;stroke-width:0.4282361px;stroke-linecap:butt;stroke-linejoin:miter;stroke-opacity:1" />
        <path
           sodipodi:nodetypes="cscccc"
           inkscape:connector-curvature="0"
           id="path1295"
           d="m 17.28561,112.36778 c 0,0 -3.576501,-10.42136 -2.927624,-15.39607 0.648872,-4.974714 5.623588,-17.087066 5.623588,-17.087066 0,0 1.297752,-1.514038 1.730335,0.432585 0.432583,1.946638 0.01311,20.549991 -0.635757,22.280311 -0.648872,1.73034 -3.790542,9.77024 -3.790542,9.77024 z"
           style="fill:#599bc1;fill-opacity:1;fill-rule:evenodd;stroke:none;stroke-width:0.4282361px;stroke-linecap:butt;stroke-linejoin:miter;stroke-opacity:1" />
        <path
           sodipodi:nodetypes="cccscccc"
           inkscape:connector-curvature="0"
           id="path1297"
           d="m 13.373107,124.73055 1.350231,-6.92547 c 0,0 0.380104,-8.43126 -0.917648,-11.45935 -1.297749,-3.02808 -2.162918,-6.92135 -2.162918,-8.867972 0,-1.946639 -1.7303358,-2.379223 -1.7303358,-2.379223 l -1.730335,5.839885 c 0,0 -0.8651659,11.46347 0,13.6264 0.8651691,2.16292 5.1910058,10.16573 5.1910058,10.16573 z"
           style="fill:#599bc1;fill-opacity:1;fill-rule:evenodd;stroke:none;stroke-width:0.4282361px;stroke-linecap:butt;stroke-linejoin:miter;stroke-opacity:1" />
        <path
           sodipodi:nodetypes="csccccc"
           inkscape:connector-curvature="0"
           id="path1299"
           d="m 3.7596815,112.97731 c 0,0 -0.2162939,14.49156 1.297752,19.03369 1.5140412,4.54213 7.7887555,12.97752 7.7887555,12.97752 l 0.775581,-7.54399 -2.099571,-7.96568 -4.5181414,-11.95941 z"
           style="fill:#599bc1;fill-opacity:1;fill-rule:evenodd;stroke:none;stroke-width:0.4282361px;stroke-linecap:butt;stroke-linejoin:miter;stroke-opacity:1" />
        <path
           sodipodi:nodetypes="cscccc"
           inkscape:connector-curvature="0"
           id="path1301"
           d="m 16.446683,166.24848 c 0,0 -7.2797025,-4.82178 -9.8752083,-12.392 -2.5955042,-7.57021 -1.9466273,-17.73594 -1.9466273,-17.73594 0,0 3.244381,5.6236 4.1095452,7.57022 0.8651708,1.94662 5.8923644,9.50372 5.6760724,10.36889 -0.216294,0.86517 2.036218,12.18883 2.036218,12.18883 z"
           style="fill:#599bc1;fill-opacity:1;fill-rule:evenodd;stroke:none;stroke-width:0.4282361px;stroke-linecap:butt;stroke-linejoin:miter;stroke-opacity:1" />
        <path
           sodipodi:nodetypes="cccccc"
           inkscape:connector-curvature="0"
           id="path1303"
           d="m 24.539075,187.1392 c 0,0 -8.603696,-1.87879 -10.766619,-4.4743 -2.162916,-2.5955 -8.4987334,-20.80562 -6.9846874,-20.58933 1.5140411,0.2163 8.2190894,8.86797 8.2190894,8.86797 l 7.279705,10.13948 z"
           style="fill:#599bc1;fill-opacity:1;fill-rule:evenodd;stroke:none;stroke-width:0.4282361px;stroke-linecap:butt;stroke-linejoin:miter;stroke-opacity:1" />
        <path
           sodipodi:nodetypes="csccsc"
           inkscape:connector-curvature="0"
           id="path1305"
           d="m 43.612123,208.10639 c 0,0 -10.220451,1.12081 -14.546291,-3.8539 -4.325836,-4.97472 -9.949428,-13.41009 -9.949428,-13.41009 l 6.705052,2.16291 c 0,0 6.322692,2.83804 8.053027,5.21725 1.730335,2.3792 9.73764,9.88383 9.73764,9.88383 z"
           style="fill:#599bc1;fill-opacity:1;fill-rule:evenodd;stroke:none;stroke-width:0.4282361px;stroke-linecap:butt;stroke-linejoin:miter;stroke-opacity:1" />
        <path
           sodipodi:nodetypes="csccsc"
           inkscape:connector-curvature="0"
           id="path1307"
           d="m 57.987848,220.50698 c 0,0 -7.509119,5.80729 -10.320912,3.64437 -2.811795,-2.16293 -12.328639,-11.46347 -12.328639,-11.46347 h 8.65168 c 0,0 5.077423,1.76743 6.807758,3.06519 1.730335,1.29775 7.190113,4.75391 7.190113,4.75391 z"
           style="fill:#599bc1;fill-opacity:1;fill-rule:evenodd;stroke:none;stroke-width:0.4282361px;stroke-linecap:butt;stroke-linejoin:miter;stroke-opacity:1" />
        <path
           sodipodi:nodetypes="cccscc"
           inkscape:connector-curvature="0"
           id="path1309"
           d="m 51.776481,229.99123 c 0,0 3.904128,3.01722 8.229962,4.96384 4.325841,1.94664 8.640807,1.09233 10.154848,-0.8543 1.514046,-1.94662 4.188272,-5.11678 0.511308,-6.63082 -3.676964,-1.51404 -5.269725,-1.37198 -8.297812,-1.15568 -3.028089,0.21628 -10.598306,3.67696 -10.598306,3.67696 z"
           style="fill:#599bc1;fill-opacity:1;fill-rule:evenodd;stroke:none;stroke-width:0.4282361px;stroke-linecap:butt;stroke-linejoin:miter;stroke-opacity:1" />
        <path
           sodipodi:nodetypes="cscccccc"
           inkscape:connector-curvature="0"
           id="path1311"
           d="m 71.242756,242.87215 c 0,0 6.705046,0.86517 8.867964,0 2.162921,-0.86517 3.46067,-0.64887 4.325844,-2.81179 0.865169,-2.16293 3.17015,-7.17699 2.088697,-7.82586 -1.08147,-0.64888 -7.063418,-0.60952 -7.063418,-0.60952 0,0 -1.730335,0 -3.46067,1.29776 -1.730335,1.29773 -5.053432,2.9145 -5.486019,5.07742 -0.432582,2.16291 0.727602,4.87199 0.727602,4.87199 z"
           style="fill:#599bc1;fill-opacity:1;fill-rule:evenodd;stroke:none;stroke-width:0.4282361px;stroke-linecap:butt;stroke-linejoin:miter;stroke-opacity:1" />
        <path
           sodipodi:nodetypes="ccscccccc"
           inkscape:connector-curvature="0"
           id="path1313"
           d="m 86.383186,247.6267 c 0,0 5.892357,-0.10277 8.271564,-2.69822 2.379207,-2.59549 3.231266,-4.69506 3.231266,-6.64168 0,-1.94663 -0.904532,-6.63085 -1.120816,-7.7123 0.24252,-2.68734 -1.680115,-2.27876 -2.545285,-1.62988 -0.865169,0.64887 -2.645714,3.42582 -3.727183,5.15615 -1.081454,1.73034 -2.379207,3.67697 -2.595508,4.75842 -0.216284,1.08147 -0.648868,4.10954 -0.648868,4.10954 z"
           style="fill:#599bc1;fill-opacity:1;fill-rule:evenodd;stroke:none;stroke-width:0.4282361px;stroke-linecap:butt;stroke-linejoin:miter;stroke-opacity:1" />
        <path
           inkscape:connector-curvature="0"
           id="path1315"
           d="m 33.205498,71.08928 c 0,0 -7.570217,6.921337 -9.084263,9.733129 -1.514041,2.811808 0,13.193805 0,13.193805 l 8.002805,-6.488752 c 0,0 1.514041,0.2163 1.297747,-3.028076 C 33.205498,81.254993 33.205498,71.08928 33.205498,71.08928 Z"
           style="fill:#599bc1;fill-opacity:1;fill-rule:evenodd;stroke:none;stroke-width:0.4282361px;stroke-linecap:butt;stroke-linejoin:miter;stroke-opacity:1" />
        <path
           sodipodi:nodetypes="ccssccc"
           inkscape:connector-curvature="0"
           id="path1317"
           d="m 16.276117,116.24792 8.031293,-0.45882 c 0,0 8.65168,-6.48875 9.084262,-8.65168 0.432582,-2.1629 -1.730336,-3.89324 -3.028088,-3.89324 -1.297752,0 -2.811793,-0.64889 -4.542128,0.43258 -1.730336,1.08146 -6.314081,6.05617 -6.314081,6.05617 z"
           style="fill:#599bc1;fill-opacity:1;fill-rule:evenodd;stroke:none;stroke-width:0.4282361px;stroke-linecap:butt;stroke-linejoin:miter;stroke-opacity:1" />
        <path
           sodipodi:nodetypes="cccccccc"
           inkscape:connector-curvature="0"
           id="path1319"
           d="m 13.407966,129.37839 6.501876,0.41946 c 0,0 3.845275,-0.16606 6.008198,-3.19415 2.162918,-3.02808 3.46067,-5.191 3.46067,-5.191 0,0 2.162918,-0.64889 0,-1.94664 -2.162923,-1.29774 -1.946629,-2.37921 -5.191005,-1.73032 -3.244381,0.64887 -5.066557,-0.35611 -6.580603,2.23938 -1.514042,2.59551 -4.199136,9.40327 -4.199136,9.40327 z"
           style="fill:#599bc1;fill-opacity:1;fill-rule:evenodd;stroke:none;stroke-width:0.4282361px;stroke-linecap:butt;stroke-linejoin:miter;stroke-opacity:1" />
        <path
           sodipodi:nodetypes="csscsccc"
           inkscape:connector-curvature="0"
           id="path1321"
           d="m 13.414096,147.4442 c 0,0 2.890514,1.65386 4.837143,-0.0764 1.946628,-1.73033 5.191005,-5.4073 6.272464,-8.65167 1.081459,-3.24438 2.379211,-4.54213 2.811794,-5.62358 0.432583,-1.08147 0.648876,-2.16293 -0.648877,-2.16293 -1.297747,0 -7.353923,0.43259 -8.219088,2.16293 -0.86517,1.73032 -2.521284,1.52714 -3.17016,4.98782 -0.648876,3.46066 -1.883276,9.36391 -1.883276,9.36391 z"
           style="fill:#599bc1;fill-opacity:1;fill-rule:evenodd;stroke:none;stroke-width:0.4282361px;stroke-linecap:butt;stroke-linejoin:miter;stroke-opacity:1" />
        <path
           sodipodi:nodetypes="ccccsssc"
           inkscape:connector-curvature="0"
           id="path1323"
           d="m 17.969344,168.60368 c 0,0 3.958859,-3.50002 5.256606,-6.31181 1.297753,-2.8118 1.297753,-4.54213 1.730335,-7.78651 0.432588,-3.24439 0.432588,-4.32585 1.08146,-6.70505 0.648875,-2.37921 0.648875,-3.89326 -1.08146,-3.02809 -1.730335,0.86516 -5.623588,4.10954 -6.05617,5.83988 -0.432583,1.73034 -1.948878,3.75344 -2.381461,7.4304 -0.432586,3.67696 1.45069,10.56118 1.45069,10.56118 z"
           style="fill:#599bc1;fill-opacity:1;fill-rule:evenodd;stroke:none;stroke-width:0.4282361px;stroke-linecap:butt;stroke-linejoin:miter;stroke-opacity:1" />
        <path
           sodipodi:nodetypes="cccsscc"
           inkscape:connector-curvature="0"
           id="path1325"
           d="m 25.183449,187.47131 c 0,0 3.666094,-5.49689 3.017217,-6.57834 -0.648875,-1.08147 -0.648875,-20.76403 -0.648875,-20.76403 0,0 -1.946629,0.64887 -2.595506,2.8118 -0.648875,2.16292 -2.162918,4.75843 -2.37921,8.0028 -0.21629,3.24438 -0.865166,2.59551 -0.21629,5.62358 0.648876,3.0281 2.822664,10.90419 2.822664,10.90419 z"
           style="fill:#599bc1;fill-opacity:1;fill-rule:evenodd;stroke:none;stroke-width:0.4282361px;stroke-linecap:butt;stroke-linejoin:miter;stroke-opacity:1" />
        <path
           sodipodi:nodetypes="ccscsscc"
           inkscape:connector-curvature="0"
           id="path1327"
           d="m 34.892595,195.88271 0.421713,-12.33088 c 0,0 0.967878,-1.65388 -0.113588,-3.38422 -1.081458,-1.73034 -1.601379,-2.9145 -1.38509,-5.29371 0.216293,-2.37921 -1.289135,-3.71407 -2.803176,-4.14666 -1.514041,-0.43258 -2.291871,3.96974 -2.291871,6.13266 0,2.16292 -0.02399,10.38426 0.408595,11.682 0.432583,1.29775 5.763411,7.34081 5.763411,7.34081 z"
           style="fill:#599bc1;fill-opacity:1;fill-rule:evenodd;stroke:none;stroke-width:0.4282361px;stroke-linecap:butt;stroke-linejoin:miter;stroke-opacity:1" />
        <path
           sodipodi:nodetypes="cscsccc"
           inkscape:connector-curvature="0"
           id="path1329"
           d="m 58.022709,218.93636 c 0,0 -0.04797,-9.2897 -4.590114,-16.21104 -4.542128,-6.92133 -9.226329,-12.96439 -9.226329,-12.96439 0,0 -1.514043,0 -0.865166,3.46068 0.648877,3.46067 2.162918,8.86797 3.676959,11.67976 1.514046,2.81179 4.325841,8.86796 5.839882,10.16572 1.514046,1.29775 5.164768,3.86927 5.164768,3.86927 z"
           style="fill:#599bc1;fill-opacity:1;fill-rule:evenodd;stroke:none;stroke-width:0.4282361px;stroke-linecap:butt;stroke-linejoin:miter;stroke-opacity:1" />
        <path
           sodipodi:nodetypes="ccccsscc"
           inkscape:connector-curvature="0"
           id="path1331"
           d="m 71.675337,226.09797 c 0,0 -1.551152,-8.38515 -6.093285,-13.57617 -4.542129,-5.191 -11.210065,-11.94627 -11.210065,-11.94627 0,0 -1.514046,0.43258 0,3.02809 1.514041,2.59551 2.162918,4.10954 3.46067,7.35392 1.297749,3.24438 1.730335,3.46066 3.46067,6.48875 1.730335,3.0281 6.056171,6.05619 7.137629,6.92134 1.081463,0.86517 3.244381,1.73034 3.244381,1.73034 z"
           style="fill:#599bc1;fill-opacity:1;fill-rule:evenodd;stroke:none;stroke-width:0.4282361px;stroke-linecap:butt;stroke-linejoin:miter;stroke-opacity:1" />
        <path
           sodipodi:nodetypes="csccscc"
           inkscape:connector-curvature="0"
           id="path1333"
           d="m 84.869148,229.87151 c 0,0 -2.276504,-6.93444 -8.116386,-12.34174 -5.839882,-5.4073 -12.215059,-9.72002 -12.215059,-9.72002 0,0 -0.216289,2.16292 1.514046,4.32583 1.730335,2.16292 3.46067,6.48877 4.974713,8.43539 1.514041,1.94662 3.676964,4.97472 6.488757,6.48875 2.811795,1.51406 7.353929,2.81179 7.353929,2.81179 z"
           style="fill:#599bc1;fill-opacity:1;fill-rule:evenodd;stroke:none;stroke-width:0.4282361px;stroke-linecap:butt;stroke-linejoin:miter;stroke-opacity:1" />
        <path
           sodipodi:nodetypes="cscscc"
           inkscape:connector-curvature="0"
           id="path1335"
           d="m 96.596285,228.23678 c 0,0 -3.824621,-6.47072 -7.534041,-10.44564 -1.849038,-1.98137 -12.071403,-6.32467 -12.91035,-6.62711 -0.838946,-0.30243 2.942212,7.43513 5.28457,10.06393 2.342355,2.62881 5.111356,5.33816 6.767427,6.15821 1.656087,0.82005 8.392394,0.85061 8.392394,0.85061 z"
           style="fill:#599bc1;fill-opacity:1;fill-rule:evenodd;stroke:none;stroke-width:0.4282361px;stroke-linecap:butt;stroke-linejoin:miter;stroke-opacity:1" />
        <path
           inkscape:connector-curvature="0"
           id="path1337"
           d="m 24.588796,92.271542 -0.935443,5.078121 -0.668174,6.147197 -5.479025,8.55263 -0.935444,4.94448 -2.80633,8.28536 0.935444,11.62622 -1.737252,10.02261 2.271791,2.80633 0.133635,8.55262 2.53906,12.16077 2.004521,1.60361 3.0736,9.08717 2.271791,6.94901 2.806331,2.53906"
           style="fill:#599bc1;fill-opacity:1;fill-rule:evenodd;stroke:#ffffff;stroke-width:1.66499996;stroke-linecap:butt;stroke-linejoin:miter;stroke-miterlimit:4;stroke-dasharray:none;stroke-opacity:1" />
        <path
           inkscape:connector-curvature="0"
           id="path1339"
           d="m 27.929665,190.35946 7.750815,7.48354 3.207234,3.87541 4.677217,4.67722 1.33635,2.27179 2.405425,2.00452 5.34539,5.47903 6.013564,3.74177 0.133635,2.40542 h 5.879928 l 2.004523,2.00452 3.741772,2.13816 2.672697,1.60362 0.801809,1.73725 8.285355,0.26727 2.539058,0.4009 2.138156,1.06908 2.138159,1.33635 2.138156,-2.00452 3.474503,-2.80633 2.939966,0.13364 1.069078,1.20271 2.405425,0.53454 1.20271,-1.33635 h 3.74178 l 0.66817,1.73725 1.46998,-0.26727"
           style="fill:#599bc1;fill-opacity:1;fill-rule:evenodd;stroke:#fffffb;stroke-width:1.66499996;stroke-linecap:butt;stroke-linejoin:miter;stroke-miterlimit:4;stroke-dasharray:none;stroke-opacity:1" />
      </g>
      <g
         style="fill:#599bc1;fill-opacity:1"
         id="g1391"
         transform="matrix(-0.08322492,0,0,0.07932606,89.760024,144.36404)">
        <path
           style="fill:#599bc1;fill-opacity:1;fill-rule:evenodd;stroke:none;stroke-width:0.4282361px;stroke-linecap:butt;stroke-linejoin:miter;stroke-opacity:1"
           d="m 23.210582,97.633705 c 0,0 5.000954,-5.776518 6.082412,-5.992818 1.08146,-0.216301 5.829014,-1.157929 7.126766,-0.725345 1.297747,0.432569 5.191005,4.758414 5.191005,4.758414 0,0 -4.758422,2.595508 -6.705051,3.676961 -1.946624,1.081473 -4.54213,2.162923 -6.705048,1.297753 -2.162921,-0.865168 -4.990084,-3.014965 -4.990084,-3.014965 z"
           id="path1343"
           inkscape:connector-curvature="0"
           sodipodi:nodetypes="cscccsc" />
        <path
           style="fill:#599bc1;fill-opacity:1;fill-rule:evenodd;stroke:none;stroke-width:0.4282361px;stroke-linecap:butt;stroke-linejoin:miter;stroke-opacity:1"
           d="m 17.28561,112.36778 c 0,0 -3.576501,-10.42136 -2.927624,-15.39607 0.648872,-4.974714 5.623588,-17.087066 5.623588,-17.087066 0,0 1.297752,-1.514038 1.730335,0.432585 0.432583,1.946638 0.01311,20.549991 -0.635757,22.280311 -0.648872,1.73034 -3.790542,9.77024 -3.790542,9.77024 z"
           id="path1345"
           inkscape:connector-curvature="0"
           sodipodi:nodetypes="cscccc" />
        <path
           style="fill:#599bc1;fill-opacity:1;fill-rule:evenodd;stroke:none;stroke-width:0.4282361px;stroke-linecap:butt;stroke-linejoin:miter;stroke-opacity:1"
           d="m 13.373107,124.73055 1.350231,-6.92547 c 0,0 0.380104,-8.43126 -0.917648,-11.45935 -1.297749,-3.02808 -2.162918,-6.92135 -2.162918,-8.867972 0,-1.946639 -1.7303358,-2.379223 -1.7303358,-2.379223 l -1.730335,5.839885 c 0,0 -0.8651659,11.46347 0,13.6264 0.8651691,2.16292 5.1910058,10.16573 5.1910058,10.16573 z"
           id="path1347"
           inkscape:connector-curvature="0"
           sodipodi:nodetypes="cccscccc" />
        <path
           style="fill:#599bc1;fill-opacity:1;fill-rule:evenodd;stroke:none;stroke-width:0.4282361px;stroke-linecap:butt;stroke-linejoin:miter;stroke-opacity:1"
           d="m 3.7596815,112.97731 c 0,0 -0.2162939,14.49156 1.297752,19.03369 1.5140412,4.54213 7.7887555,12.97752 7.7887555,12.97752 l 0.775581,-7.54399 -2.099571,-7.96568 -4.5181414,-11.95941 z"
           id="path1349"
           inkscape:connector-curvature="0"
           sodipodi:nodetypes="csccccc" />
        <path
           style="fill:#599bc1;fill-opacity:1;fill-rule:evenodd;stroke:none;stroke-width:0.4282361px;stroke-linecap:butt;stroke-linejoin:miter;stroke-opacity:1"
           d="m 16.446683,166.24848 c 0,0 -7.2797025,-4.82178 -9.8752083,-12.392 -2.5955042,-7.57021 -1.9466273,-17.73594 -1.9466273,-17.73594 0,0 3.244381,5.6236 4.1095452,7.57022 0.8651708,1.94662 5.8923644,9.50372 5.6760724,10.36889 -0.216294,0.86517 2.036218,12.18883 2.036218,12.18883 z"
           id="path1351"
           inkscape:connector-curvature="0"
           sodipodi:nodetypes="cscccc" />
        <path
           style="fill:#599bc1;fill-opacity:1;fill-rule:evenodd;stroke:none;stroke-width:0.4282361px;stroke-linecap:butt;stroke-linejoin:miter;stroke-opacity:1"
           d="m 24.539075,187.1392 c 0,0 -8.603696,-1.87879 -10.766619,-4.4743 -2.162916,-2.5955 -8.4987334,-20.80562 -6.9846874,-20.58933 1.5140411,0.2163 8.2190894,8.86797 8.2190894,8.86797 l 7.279705,10.13948 z"
           id="path1353"
           inkscape:connector-curvature="0"
           sodipodi:nodetypes="cccccc" />
        <path
           style="fill:#599bc1;fill-opacity:1;fill-rule:evenodd;stroke:none;stroke-width:0.4282361px;stroke-linecap:butt;stroke-linejoin:miter;stroke-opacity:1"
           d="m 43.612123,208.10639 c 0,0 -10.220451,1.12081 -14.546291,-3.8539 -4.325836,-4.97472 -9.949428,-13.41009 -9.949428,-13.41009 l 6.705052,2.16291 c 0,0 6.322692,2.83804 8.053027,5.21725 1.730335,2.3792 9.73764,9.88383 9.73764,9.88383 z"
           id="path1355"
           inkscape:connector-curvature="0"
           sodipodi:nodetypes="csccsc" />
        <path
           style="fill:#599bc1;fill-opacity:1;fill-rule:evenodd;stroke:none;stroke-width:0.4282361px;stroke-linecap:butt;stroke-linejoin:miter;stroke-opacity:1"
           d="m 57.987848,220.50698 c 0,0 -7.509119,5.80729 -10.320912,3.64437 -2.811795,-2.16293 -12.328639,-11.46347 -12.328639,-11.46347 h 8.65168 c 0,0 5.077423,1.76743 6.807758,3.06519 1.730335,1.29775 7.190113,4.75391 7.190113,4.75391 z"
           id="path1357"
           inkscape:connector-curvature="0"
           sodipodi:nodetypes="csccsc" />
        <path
           style="fill:#599bc1;fill-opacity:1;fill-rule:evenodd;stroke:none;stroke-width:0.4282361px;stroke-linecap:butt;stroke-linejoin:miter;stroke-opacity:1"
           d="m 51.776481,229.99123 c 0,0 3.904128,3.01722 8.229962,4.96384 4.325841,1.94664 8.640807,1.09233 10.154848,-0.8543 1.514046,-1.94662 4.188272,-5.11678 0.511308,-6.63082 -3.676964,-1.51404 -5.269725,-1.37198 -8.297812,-1.15568 -3.028089,0.21628 -10.598306,3.67696 -10.598306,3.67696 z"
           id="path1359"
           inkscape:connector-curvature="0"
           sodipodi:nodetypes="cccscc" />
        <path
           style="fill:#599bc1;fill-opacity:1;fill-rule:evenodd;stroke:none;stroke-width:0.4282361px;stroke-linecap:butt;stroke-linejoin:miter;stroke-opacity:1"
           d="m 71.242756,242.87215 c 0,0 6.705046,0.86517 8.867964,0 2.162921,-0.86517 3.46067,-0.64887 4.325844,-2.81179 0.865169,-2.16293 3.17015,-7.17699 2.088697,-7.82586 -1.08147,-0.64888 -7.063418,-0.60952 -7.063418,-0.60952 0,0 -1.730335,0 -3.46067,1.29776 -1.730335,1.29773 -5.053432,2.9145 -5.486019,5.07742 -0.432582,2.16291 0.727602,4.87199 0.727602,4.87199 z"
           id="path1361"
           inkscape:connector-curvature="0"
           sodipodi:nodetypes="cscccccc" />
        <path
           style="fill:#599bc1;fill-opacity:1;fill-rule:evenodd;stroke:none;stroke-width:0.4282361px;stroke-linecap:butt;stroke-linejoin:miter;stroke-opacity:1"
           d="m 86.383186,247.6267 c 0,0 5.892357,-0.10277 8.271564,-2.69822 2.379207,-2.59549 3.231266,-4.69506 3.231266,-6.64168 0,-1.94663 -0.904532,-6.63085 -1.120816,-7.7123 0.24252,-2.68734 -1.680115,-2.27876 -2.545285,-1.62988 -0.865169,0.64887 -2.645714,3.42582 -3.727183,5.15615 -1.081454,1.73034 -2.379207,3.67697 -2.595508,4.75842 -0.216284,1.08147 -0.648868,4.10954 -0.648868,4.10954 z"
           id="path1363"
           inkscape:connector-curvature="0"
           sodipodi:nodetypes="ccscccccc" />
        <path
           style="fill:#599bc1;fill-opacity:1;fill-rule:evenodd;stroke:none;stroke-width:0.4282361px;stroke-linecap:butt;stroke-linejoin:miter;stroke-opacity:1"
           d="m 33.205498,71.08928 c 0,0 -7.570217,6.921337 -9.084263,9.733129 -1.514041,2.811808 0,13.193805 0,13.193805 l 8.002805,-6.488752 c 0,0 1.514041,0.2163 1.297747,-3.028076 C 33.205498,81.254993 33.205498,71.08928 33.205498,71.08928 Z"
           id="path1365"
           inkscape:connector-curvature="0" />
        <path
           style="fill:#599bc1;fill-opacity:1;fill-rule:evenodd;stroke:none;stroke-width:0.4282361px;stroke-linecap:butt;stroke-linejoin:miter;stroke-opacity:1"
           d="m 16.276117,116.24792 8.031293,-0.45882 c 0,0 8.65168,-6.48875 9.084262,-8.65168 0.432582,-2.1629 -1.730336,-3.89324 -3.028088,-3.89324 -1.297752,0 -2.811793,-0.64889 -4.542128,0.43258 -1.730336,1.08146 -6.314081,6.05617 -6.314081,6.05617 z"
           id="path1367"
           inkscape:connector-curvature="0"
           sodipodi:nodetypes="ccssccc" />
        <path
           style="fill:#599bc1;fill-opacity:1;fill-rule:evenodd;stroke:none;stroke-width:0.4282361px;stroke-linecap:butt;stroke-linejoin:miter;stroke-opacity:1"
           d="m 13.407966,129.37839 6.501876,0.41946 c 0,0 3.845275,-0.16606 6.008198,-3.19415 2.162918,-3.02808 3.46067,-5.191 3.46067,-5.191 0,0 2.162918,-0.64889 0,-1.94664 -2.162923,-1.29774 -1.946629,-2.37921 -5.191005,-1.73032 -3.244381,0.64887 -5.066557,-0.35611 -6.580603,2.23938 -1.514042,2.59551 -4.199136,9.40327 -4.199136,9.40327 z"
           id="path1369"
           inkscape:connector-curvature="0"
           sodipodi:nodetypes="cccccccc" />
        <path
           style="fill:#599bc1;fill-opacity:1;fill-rule:evenodd;stroke:none;stroke-width:0.4282361px;stroke-linecap:butt;stroke-linejoin:miter;stroke-opacity:1"
           d="m 13.414096,147.4442 c 0,0 2.890514,1.65386 4.837143,-0.0764 1.946628,-1.73033 5.191005,-5.4073 6.272464,-8.65167 1.081459,-3.24438 2.379211,-4.54213 2.811794,-5.62358 0.432583,-1.08147 0.648876,-2.16293 -0.648877,-2.16293 -1.297747,0 -7.353923,0.43259 -8.219088,2.16293 -0.86517,1.73032 -2.521284,1.52714 -3.17016,4.98782 -0.648876,3.46066 -1.883276,9.36391 -1.883276,9.36391 z"
           id="path1371"
           inkscape:connector-curvature="0"
           sodipodi:nodetypes="csscsccc" />
        <path
           style="fill:#599bc1;fill-opacity:1;fill-rule:evenodd;stroke:none;stroke-width:0.4282361px;stroke-linecap:butt;stroke-linejoin:miter;stroke-opacity:1"
           d="m 17.969344,168.60368 c 0,0 3.958859,-3.50002 5.256606,-6.31181 1.297753,-2.8118 1.297753,-4.54213 1.730335,-7.78651 0.432588,-3.24439 0.432588,-4.32585 1.08146,-6.70505 0.648875,-2.37921 0.648875,-3.89326 -1.08146,-3.02809 -1.730335,0.86516 -5.623588,4.10954 -6.05617,5.83988 -0.432583,1.73034 -1.948878,3.75344 -2.381461,7.4304 -0.432586,3.67696 1.45069,10.56118 1.45069,10.56118 z"
           id="path1373"
           inkscape:connector-curvature="0"
           sodipodi:nodetypes="ccccsssc" />
        <path
           style="fill:#599bc1;fill-opacity:1;fill-rule:evenodd;stroke:none;stroke-width:0.4282361px;stroke-linecap:butt;stroke-linejoin:miter;stroke-opacity:1"
           d="m 25.183449,187.47131 c 0,0 3.666094,-5.49689 3.017217,-6.57834 -0.648875,-1.08147 -0.648875,-20.76403 -0.648875,-20.76403 0,0 -1.946629,0.64887 -2.595506,2.8118 -0.648875,2.16292 -2.162918,4.75843 -2.37921,8.0028 -0.21629,3.24438 -0.865166,2.59551 -0.21629,5.62358 0.648876,3.0281 2.822664,10.90419 2.822664,10.90419 z"
           id="path1375"
           inkscape:connector-curvature="0"
           sodipodi:nodetypes="cccsscc" />
        <path
           style="fill:#599bc1;fill-opacity:1;fill-rule:evenodd;stroke:none;stroke-width:0.4282361px;stroke-linecap:butt;stroke-linejoin:miter;stroke-opacity:1"
           d="m 34.892595,195.88271 0.421713,-12.33088 c 0,0 0.967878,-1.65388 -0.113588,-3.38422 -1.081458,-1.73034 -1.601379,-2.9145 -1.38509,-5.29371 0.216293,-2.37921 -1.289135,-3.71407 -2.803176,-4.14666 -1.514041,-0.43258 -2.291871,3.96974 -2.291871,6.13266 0,2.16292 -0.02399,10.38426 0.408595,11.682 0.432583,1.29775 5.763411,7.34081 5.763411,7.34081 z"
           id="path1377"
           inkscape:connector-curvature="0"
           sodipodi:nodetypes="ccscsscc" />
        <path
           style="fill:#599bc1;fill-opacity:1;fill-rule:evenodd;stroke:none;stroke-width:0.4282361px;stroke-linecap:butt;stroke-linejoin:miter;stroke-opacity:1"
           d="m 58.022709,218.93636 c 0,0 -0.04797,-9.2897 -4.590114,-16.21104 -4.542128,-6.92133 -9.226329,-12.96439 -9.226329,-12.96439 0,0 -1.514043,0 -0.865166,3.46068 0.648877,3.46067 2.162918,8.86797 3.676959,11.67976 1.514046,2.81179 4.325841,8.86796 5.839882,10.16572 1.514046,1.29775 5.164768,3.86927 5.164768,3.86927 z"
           id="path1379"
           inkscape:connector-curvature="0"
           sodipodi:nodetypes="cscsccc" />
        <path
           style="fill:#599bc1;fill-opacity:1;fill-rule:evenodd;stroke:none;stroke-width:0.4282361px;stroke-linecap:butt;stroke-linejoin:miter;stroke-opacity:1"
           d="m 71.675337,226.09797 c 0,0 -1.551152,-8.38515 -6.093285,-13.57617 -4.542129,-5.191 -11.210065,-11.94627 -11.210065,-11.94627 0,0 -1.514046,0.43258 0,3.02809 1.514041,2.59551 2.162918,4.10954 3.46067,7.35392 1.297749,3.24438 1.730335,3.46066 3.46067,6.48875 1.730335,3.0281 6.056171,6.05619 7.137629,6.92134 1.081463,0.86517 3.244381,1.73034 3.244381,1.73034 z"
           id="path1381"
           inkscape:connector-curvature="0"
           sodipodi:nodetypes="ccccsscc" />
        <path
           style="fill:#599bc1;fill-opacity:1;fill-rule:evenodd;stroke:none;stroke-width:0.4282361px;stroke-linecap:butt;stroke-linejoin:miter;stroke-opacity:1"
           d="m 84.869148,229.87151 c 0,0 -2.276504,-6.93444 -8.116386,-12.34174 -5.839882,-5.4073 -12.215059,-9.72002 -12.215059,-9.72002 0,0 -0.216289,2.16292 1.514046,4.32583 1.730335,2.16292 3.46067,6.48877 4.974713,8.43539 1.514041,1.94662 3.676964,4.97472 6.488757,6.48875 2.811795,1.51406 7.353929,2.81179 7.353929,2.81179 z"
           id="path1383"
           inkscape:connector-curvature="0"
           sodipodi:nodetypes="csccscc" />
        <path
           style="fill:#599bc1;fill-opacity:1;fill-rule:evenodd;stroke:none;stroke-width:0.4282361px;stroke-linecap:butt;stroke-linejoin:miter;stroke-opacity:1"
           d="m 96.596285,228.23678 c 0,0 -3.824621,-6.47072 -7.534041,-10.44564 -1.849038,-1.98137 -12.071403,-6.32467 -12.91035,-6.62711 -0.838946,-0.30243 2.942212,7.43513 5.28457,10.06393 2.342355,2.62881 5.111356,5.33816 6.767427,6.15821 1.656087,0.82005 8.392394,0.85061 8.392394,0.85061 z"
           id="path1385"
           inkscape:connector-curvature="0"
           sodipodi:nodetypes="cscscc" />
        <path
           style="fill:#599bc1;fill-opacity:1;fill-rule:evenodd;stroke:#ffffff;stroke-width:1.66499996;stroke-linecap:butt;stroke-linejoin:miter;stroke-miterlimit:4;stroke-dasharray:none;stroke-opacity:1"
           d="m 24.588796,92.271542 -0.935443,5.078121 -0.668174,6.147197 -5.479025,8.55263 -0.935444,4.94448 -2.80633,8.28536 0.935444,11.62622 -1.737252,10.02261 2.271791,2.80633 0.133635,8.55262 2.53906,12.16077 2.004521,1.60361 3.0736,9.08717 2.271791,6.94901 2.806331,2.53906"
           id="path1387"
           inkscape:connector-curvature="0" />
        <path
           style="fill:#599bc1;fill-opacity:1;fill-rule:evenodd;stroke:#fffffb;stroke-width:1.66499996;stroke-linecap:butt;stroke-linejoin:miter;stroke-miterlimit:4;stroke-dasharray:none;stroke-opacity:1"
           d="m 27.929665,190.35946 7.750815,7.48354 3.207234,3.87541 4.677217,4.67722 1.33635,2.27179 2.405425,2.00452 5.34539,5.47903 6.013564,3.74177 0.133635,2.40542 h 5.879928 l 2.004523,2.00452 3.741772,2.13816 2.672697,1.60362 0.801809,1.73725 8.285355,0.26727 2.539058,0.4009 2.138156,1.06908 2.138159,1.33635 2.138156,-2.00452 3.474503,-2.80633 2.939966,0.13364 1.069078,1.20271 2.405425,0.53454 1.20271,-1.33635 h 3.74178 l 0.66817,1.73725 1.46998,-0.26727"
           id="path1389"
           inkscape:connector-curvature="0" />
      </g>
      <path
         transform="scale(0.26458333)"
         inkscape:connector-curvature="0"
         id="path939"
         d="m 299.5637,583.04832 c -0.12307,-0.038 -0.21242,-0.11516 -0.23541,-0.20327 -0.0204,-0.0781 -0.10494,-0.22593 -0.18791,-0.32849 l -0.15086,-0.18646 -0.25771,0.10123 c -0.14174,0.0557 -0.26623,0.0807 -0.27665,0.0557 -0.0104,-0.025 -0.26378,-0.26247 -0.56303,-0.5276 -0.29925,-0.26514 -0.63223,-0.61825 -0.73994,-0.78469 -0.10772,-0.16643 -0.29613,-0.3702 -0.41871,-0.4528 -0.20191,-0.13608 -0.22286,-0.17796 -0.22286,-0.44566 0,-0.36635 0.0945,-0.4964 0.37881,-0.52125 0.20834,-0.0182 0.22378,-0.0356 0.27019,-0.30343 0.0271,-0.15625 0.0772,-0.39774 0.11142,-0.53664 0.0593,-0.24078 0.12911,-1.91674 0.21854,-5.24695 l 0.0409,-1.52202 -0.41521,-0.29629 c -0.26842,-0.19154 -0.41521,-0.33984 -0.41521,-0.41948 0,-0.0749 0.11943,-0.20899 0.30472,-0.3421 0.21187,-0.15222 0.40419,-0.3817 0.63117,-0.75314 0.37882,-0.61993 0.70449,-0.91142 1.41778,-1.26901 0.50019,-0.25076 0.5047,-0.25522 0.64077,-0.63422 0.0754,-0.20992 0.18533,-0.45063 0.24436,-0.5349 0.0626,-0.0893 0.11061,-0.28562 0.1152,-0.47064 l 0.008,-0.31741 0.0487,0.31567 c 0.0268,0.17362 0.10782,0.44352 0.18014,0.59978 0.0723,0.15626 0.1321,0.36112 0.13287,0.45524 0.002,0.21842 0.0411,0.24947 0.74138,0.58537 0.62091,0.29782 1.04642,0.64242 1.36386,1.10452 0.10789,0.15705 0.36051,0.4624 0.56138,0.67855 0.20087,0.21615 0.36522,0.43271 0.36522,0.48125 0,0.0799 -0.25411,0.33596 -0.71403,0.71948 l -0.16985,0.14164 v 1.41142 c 0,0.77628 0.0182,1.62656 0.0404,1.88951 l 0.0404,0.47809 0.41731,0.0704 c 0.22952,0.0387 0.5137,0.0875 0.63151,0.10836 l 0.21421,0.0379 -0.0371,0.65545 -0.0371,0.65544 -0.36312,0.51961 c -0.19971,0.28579 -0.58141,0.81792 -0.84821,1.18253 -0.26681,0.3646 -0.63423,0.96091 -0.8165,1.32514 l -0.3314,0.66223 0.0393,0.51072 0.0393,0.51072 -0.22581,0.2638 c -0.33678,0.39346 -0.71212,0.58922 -1.18052,0.61571 -0.21564,0.0122 -0.48134,-0.005 -0.59043,-0.0391 z"
         style="opacity:0.70499998;fill:#599bc1;fill-opacity:1;fill-rule:nonzero;stroke:none;stroke-width:0.89839947;stroke-linecap:butt;stroke-linejoin:round;stroke-miterlimit:4;stroke-dasharray:none;stroke-opacity:1" />
      <path
         transform="scale(0.26458333)"
         inkscape:connector-curvature="0"
         id="path941"
         d="m 307.59073,604.34719 c -0.10417,-0.013 -0.25034,-0.0369 -0.32482,-0.0532 -0.0745,-0.0163 -0.48402,-0.43087 -0.9101,-0.92133 -0.64,-0.7367 -0.85622,-1.04139 -1.2436,-1.75244 -0.2579,-0.47339 -0.60942,-1.22545 -0.78115,-1.67126 -0.38061,-0.98805 -1.12237,-2.48308 -1.60689,-3.23874 -0.19731,-0.30774 -0.36724,-0.5694 -0.37761,-0.58148 -0.0104,-0.0121 -0.49669,0.13631 -1.08071,0.32975 -3.07182,1.01745 -4.70202,1.16397 -5.95769,0.53549 -0.52698,-0.26376 -1.03034,-0.74077 -1.26306,-1.19694 -0.76234,-1.49432 -0.13042,-3.65149 1.84014,-6.28163 0.25715,-0.34322 0.50454,-0.67384 0.54977,-0.7347 0.0774,-0.10425 0.0439,-0.10831 -0.57901,-0.0702 l -0.66123,0.0405 -0.52958,-0.35973 c -0.35051,-0.23809 -0.71644,-0.56916 -1.08222,-0.97911 l -0.55264,-0.61939 -0.42221,-0.0399 c -0.23222,-0.0219 -0.70632,-0.0405 -1.05356,-0.0413 -0.34724,-7.8e-4 -0.67396,-0.0283 -0.72605,-0.0612 -0.0589,-0.0372 -0.14602,-0.32905 -0.23054,-0.77243 l -0.13585,-0.71262 0.20764,-0.22097 c 0.20609,-0.21932 0.20797,-0.227 0.25136,-1.02917 0.0434,-0.80229 0.0425,-0.80976 -0.11915,-1.02173 -0.15996,-0.20971 -0.16286,-0.23222 -0.16286,-1.26259 0,-0.84466 0.02,-1.0877 0.10254,-1.24736 0.0986,-0.19063 0.106,-0.19356 0.19201,-0.0758 0.0492,0.0674 0.53145,0.72221 1.07166,1.45517 l 0.98219,1.33267 1.39853,0.16755 c 0.7692,0.0922 1.4437,0.1672 1.49889,0.16678 0.0552,-4.4e-4 0.23332,-0.17199 0.39583,-0.38126 0.32649,-0.42043 0.61759,-0.63202 0.80286,-0.58357 0.0667,0.0174 0.20297,0.12475 0.3028,0.23845 0.12974,0.14776 0.25958,0.21992 0.45518,0.25297 0.26144,0.0442 0.28249,0.0357 0.47117,-0.18901 l 0.19749,-0.23524 -0.72405,-0.73533 c -1.31952,-1.34008 -1.27559,-1.28743 -1.27559,-1.52873 0,-0.29983 0.14558,-0.48859 0.39541,-0.5127 0.20296,-0.0196 0.20512,-0.0234 0.31284,-0.55636 0.11062,-0.54724 0.18827,-2.07554 0.2747,-5.40604 l 0.0428,-1.64953 -0.33934,-0.25067 c -0.57756,-0.42667 -0.57665,-0.4225 -0.17352,-0.7977 0.19233,-0.17901 0.46989,-0.51579 0.6168,-0.7484 0.34814,-0.55125 0.81752,-0.97206 1.40805,-1.26237 0.47245,-0.23226 0.47772,-0.23759 0.65467,-0.66291 0.0981,-0.23582 0.21544,-0.4848 0.26075,-0.5533 0.0453,-0.0685 0.0843,-0.22475 0.0866,-0.34724 l 0.004,-0.2227 0.0838,0.2841 c 0.15984,0.54185 0.30097,0.97906 0.34645,1.07329 0.0251,0.0521 0.29185,0.22255 0.59268,0.37881 0.78556,0.40803 1.04949,0.61716 1.48504,1.17664 0.21254,0.27303 0.50278,0.62873 0.64496,0.79044 0.31245,0.35535 0.29712,0.40565 -0.25914,0.85065 l -0.3843,0.30742 0.0195,1.87306 c 0.0107,1.03018 0.0366,1.8902 0.0576,1.91115 0.0413,0.0412 1.02759,0.22461 1.20874,0.22475 0.0608,5e-5 0.11049,-0.0432 0.11049,-0.096 0,-0.0529 0.10876,-0.21623 0.24169,-0.36303 0.36755,-0.40589 1.15816,-1.41735 1.46185,-1.87021 0.14892,-0.22205 0.46578,-0.81157 0.70414,-1.31004 0.23835,-0.49846 0.62908,-1.31556 0.86827,-1.81576 0.25679,-0.537 0.4878,-0.93777 0.56406,-0.97859 0.23292,-0.12465 0.37531,-0.0783 0.55953,0.18207 0.0977,0.13816 0.19482,0.2518 0.21574,0.25254 0.0209,7.4e-4 0.0749,-0.29757 0.11997,-0.6629 l 0.082,-0.66426 -0.18475,-0.23541 c -0.18052,-0.23004 -0.18368,-0.24678 -0.13801,-0.73298 0.0257,-0.27366 0.0548,-0.50406 0.0648,-0.51201 0.01,-0.008 0.16631,-0.0312 0.34754,-0.0517 l 0.32949,-0.0372 0.16501,0.54922 0.16502,0.54922 0.40532,0.23937 c 0.22293,0.13164 0.79902,0.5334 1.28021,0.89278 l 0.87488,0.65343 0.0432,0.4646 c 0.0238,0.25553 0.0861,0.61616 0.13842,0.80139 0.0667,0.23602 0.0755,0.36045 0.0295,0.41588 -0.0361,0.0435 -0.14951,0.44852 -0.25202,0.90003 -0.1025,0.45151 -0.24752,0.92458 -0.32227,1.05126 l -0.1359,0.23034 0.16585,0.29675 c 0.10313,0.18451 0.18017,0.44148 0.2037,0.67943 0.0208,0.21047 0.0559,0.41715 0.0779,0.45929 0.022,0.0421 0.17491,-0.22867 0.33971,-0.60179 0.246,-0.55699 0.32592,-0.83648 0.4465,-1.56152 0.15035,-0.90406 0.23532,-1.16473 0.37964,-1.16473 0.12661,0 0.32108,2.69397 0.26378,3.65407 -0.044,0.73704 -0.0429,0.74582 0.11833,0.93741 0.0895,0.10637 0.16274,0.22481 0.16274,0.26321 0,0.10644 0.0412,0.0937 0.82075,-0.25419 0.88311,-0.39408 1.92386,-0.74045 2.93576,-0.97705 0.68743,-0.16073 0.86873,-0.17731 1.95717,-0.17901 1.0436,-0.002 1.2734,0.0168 1.76761,0.14184 0.76362,0.19319 1.16412,0.38645 1.55123,0.74855 0.53953,0.50466 0.81647,1.2197 0.81647,2.10806 0,0.67979 -0.18948,1.3575 -0.62744,2.24413 -0.44251,0.89583 -0.96824,1.60166 -1.96617,2.63972 -0.39299,0.40879 -0.68355,0.75994 -0.65186,0.78777 0.0762,0.0669 0.32668,0.15649 0.9743,0.34836 0.53475,0.15843 0.54052,0.16237 0.8681,0.59327 0.41712,0.54866 0.44917,0.81627 0.11674,0.9748 -0.22597,0.10775 -0.24229,0.15072 -0.33008,0.86881 -0.0233,0.19098 -0.096,0.45378 -0.16132,0.58399 -0.11801,0.23504 -0.12173,0.23677 -0.51218,0.2391 -0.26824,0.002 -0.59407,0.068 -1.02466,0.20877 l -0.63134,0.20641 -0.56403,-0.18092 -0.56403,-0.18093 -0.53797,0.53797 c -0.29588,0.29588 -0.52433,0.5516 -0.50767,0.56826 0.0578,0.0578 1.03908,-0.20054 1.38452,-0.36451 0.41839,-0.19859 0.5622,-0.20426 0.99621,-0.0393 0.28805,0.10948 0.37236,0.11684 0.62095,0.0543 0.19378,-0.0488 0.30876,-0.11878 0.35236,-0.21446 0.1017,-0.22321 0.29164,-0.27712 0.62882,-0.17846 0.2232,0.0653 0.28861,0.11254 0.2718,0.19631 -0.0122,0.0607 -0.0387,0.21412 -0.0589,0.34101 -0.0338,0.21194 -0.14308,0.31403 -1.34509,1.25635 -0.71957,0.56412 -1.34526,1.05938 -1.39042,1.10058 -0.11801,0.10766 -0.27465,0.83249 -0.25638,1.18632 0.015,0.29083 0.002,0.31516 -0.35962,0.68421 -0.20635,0.21046 -0.61667,0.55535 -0.91183,0.76643 -1.01224,0.72391 -1.49248,1.15544 -2.46589,2.21582 -0.80683,0.8789 -1.04397,1.18347 -1.37529,1.76632 -0.2202,0.38736 -0.52755,0.88623 -0.683,1.1086 -0.15545,0.22237 -0.36845,0.62034 -0.47333,0.88437 -0.16217,0.40824 -0.25638,0.54145 -0.62975,0.8905 -0.40907,0.38242 -0.45522,0.45355 -0.67583,1.04179 -0.20256,0.54009 -0.22976,0.67167 -0.18817,0.91037 0.0399,0.22895 0.0248,0.31748 -0.0838,0.49332 -0.14122,0.22849 -0.3091,0.34808 -1.13909,0.81146 -0.73959,0.4129 -1.29837,0.52595 -2.10324,0.42551 z m -9.78585,-9.83659 c 0.90645,-0.14801 2.82689,-0.69643 3.04624,-0.86991 0.0434,-0.0343 0.0789,-0.16157 0.0789,-0.28277 0,-0.19133 -0.057,-0.27316 -0.43294,-0.62119 -0.38543,-0.35685 -0.44511,-0.44442 -0.54381,-0.79785 -0.14266,-0.51086 -0.19881,-0.61581 -0.66832,-1.24903 l -0.39035,-0.52647 -0.12297,0.1526 c -1.30618,1.62095 -2.16278,3.10166 -2.24279,3.8769 -0.0301,0.29182 -0.0192,0.33943 0.0841,0.36591 0.23188,0.0595 0.63138,0.0433 1.19196,-0.0482 z m 20.38577,-12.17059 c 0.70559,-0.70316 1.45902,-1.50253 1.67429,-1.77638 0.45299,-0.57628 0.89111,-1.43204 0.93571,-1.82768 l 0.0309,-0.27423 -0.36484,-0.0733 c -0.56828,-0.11413 -1.53609,-0.0899 -2.25947,0.0566 -0.90734,0.18372 -1.76432,0.48354 -3.07025,1.07414 l -1.13325,0.51251 0.10402,0.16769 c 0.0572,0.0922 0.22357,0.28134 0.3697,0.42023 0.25462,0.24202 0.26758,0.27284 0.31114,0.73963 0.025,0.2679 0.0777,0.52964 0.11716,0.58165 0.10264,0.13538 1.89273,1.67072 1.9523,1.67448 0.0273,0.002 0.62699,-0.57218 1.33258,-1.27534 z m -17.84592,0.73525 c -0.021,-0.021 -0.0754,-0.0232 -0.12101,-0.005 -0.0504,0.0201 -0.0354,0.0351 0.0381,0.0381 0.0666,0.003 0.10384,-0.0122 0.0829,-0.0332 z"
         style="opacity:0.70499998;fill:#599bc1;fill-opacity:1;fill-rule:nonzero;stroke:none;stroke-width:0.89839947;stroke-linecap:butt;stroke-linejoin:round;stroke-miterlimit:4;stroke-dasharray:none;stroke-opacity:1" />
      <path
         transform="scale(0.26458333)"
         inkscape:connector-curvature="0"
         id="path943"
         d="m 307.59073,604.34719 c -0.10417,-0.013 -0.25191,-0.0373 -0.3283,-0.0541 -0.0793,-0.0174 -0.47865,-0.42586 -0.93,-0.95115 -0.66781,-0.77721 -0.86367,-1.05687 -1.2567,-1.79443 -0.25608,-0.48055 -0.60175,-1.22377 -0.76815,-1.65162 -0.37733,-0.97016 -1.06211,-2.34936 -1.5599,-3.14172 -0.20852,-0.33192 -0.38771,-0.61276 -0.3982,-0.62409 -0.0105,-0.0113 -0.58274,0.16352 -1.27168,0.38856 -3.50844,1.14599 -5.32432,1.12627 -6.52143,-0.0708 -0.20128,-0.20128 -0.42647,-0.48456 -0.50042,-0.62951 -0.77677,-1.52261 -0.16405,-3.63549 1.82713,-6.30059 0.28379,-0.37985 0.52953,-0.72511 0.54608,-0.76726 0.023,-0.0585 -0.11967,-0.0675 -0.60335,-0.038 l -0.63343,0.0386 -0.45094,-0.30811 c -0.4038,-0.27591 -1.04434,-0.88077 -1.5545,-1.46793 l -0.18301,-0.21062 -1.04036,-0.0342 c -0.57219,-0.0188 -1.08288,-0.057 -1.13486,-0.0847 -0.0607,-0.0324 -0.14311,-0.30587 -0.23054,-0.76528 l -0.13605,-0.71481 0.20764,-0.22097 c 0.20609,-0.21932 0.20797,-0.227 0.25136,-1.02917 0.0434,-0.80229 0.0425,-0.80976 -0.11915,-1.02173 -0.15996,-0.20971 -0.16286,-0.23222 -0.16286,-1.26259 0,-0.84466 0.02,-1.0877 0.10254,-1.24736 0.0986,-0.1906 0.10601,-0.19354 0.19184,-0.0758 0.0491,0.0674 0.53104,0.72246 1.07094,1.45574 l 0.98164,1.33322 1.48774,0.17706 1.48773,0.17706 0.19392,-0.2476 c 0.61204,-0.78143 0.85104,-0.87869 1.23638,-0.50317 0.15001,0.14618 0.30856,0.23144 0.48158,0.25895 0.24407,0.0388 0.26845,0.0277 0.4534,-0.20578 l 0.19547,-0.24679 -0.30365,-0.26156 c -0.167,-0.14385 -0.61963,-0.60281 -1.00583,-1.01991 -0.60323,-0.65148 -0.70219,-0.78814 -0.70219,-0.96965 0,-0.27969 0.11646,-0.42597 0.38189,-0.47969 0.21632,-0.0438 0.21867,-0.048 0.32538,-0.57862 0.11025,-0.54826 0.19439,-2.18926 0.27705,-5.40355 l 0.0424,-1.64916 -0.33983,-0.25104 c -0.57305,-0.42334 -0.5735,-0.42507 -0.20164,-0.77424 0.17694,-0.16613 0.46498,-0.51438 0.64009,-0.77389 0.39445,-0.58455 0.7796,-0.92858 1.40217,-1.25247 l 0.4815,-0.25051 0.26368,-0.58253 c 0.14502,-0.3204 0.26443,-0.65356 0.26535,-0.74037 0.001,-0.12269 0.31634,0.72752 0.41419,1.11778 0.0105,0.0418 0.22247,0.18389 0.47107,0.31567 1.03095,0.54652 1.26827,0.7641 2.34565,2.15059 0.21191,0.27272 0.18457,0.33531 -0.3272,0.74892 l -0.38038,0.30742 3.1e-4,1.57837 c 1.9e-4,0.8681 0.018,1.72524 0.0395,1.90476 l 0.0392,0.32641 0.54423,0.0999 c 0.66278,0.12164 0.7652,0.12364 0.7652,0.0149 0,-0.0466 0.27069,-0.40882 0.60154,-0.80496 0.86792,-1.03921 1.30926,-1.71075 1.80334,-2.74394 0.23989,-0.50165 0.63188,-1.32135 0.87107,-1.82155 0.25679,-0.537 0.4878,-0.93777 0.56406,-0.97859 0.23292,-0.12465 0.37531,-0.0783 0.55953,0.18207 0.0977,0.13816 0.19482,0.2518 0.21574,0.25254 0.0209,7.4e-4 0.0747,-0.29603 0.11955,-0.6595 l 0.0815,-0.66084 -0.17545,-0.23003 c -0.16682,-0.21872 -0.17375,-0.25474 -0.14097,-0.733 0.019,-0.27664 0.0441,-0.511 0.0559,-0.52081 0.0118,-0.01 0.16969,-0.0346 0.35092,-0.055 l 0.32949,-0.0372 0.16501,0.54922 0.16502,0.54922 0.38937,0.23142 c 0.21416,0.12728 0.7902,0.5285 1.28009,0.8916 l 0.89072,0.66018 0.0446,0.45228 c 0.0245,0.24876 0.0859,0.61104 0.13646,0.80508 0.0596,0.22868 0.0706,0.37847 0.0313,0.42579 -0.0333,0.0401 -0.15081,0.45253 -0.26109,0.91641 -0.11028,0.46388 -0.25559,0.93677 -0.32291,1.05088 l -0.12241,0.20747 0.16835,0.33222 c 0.099,0.19531 0.18213,0.4842 0.20179,0.70099 0.0184,0.20283 0.0541,0.38153 0.0793,0.39712 0.0485,0.03 0.50166,-0.92043 0.61721,-1.29463 0.0375,-0.12153 0.11549,-0.53348 0.17324,-0.91545 0.11507,-0.76106 0.22831,-1.10485 0.36394,-1.10485 0.12419,0 0.26217,1.70449 0.26407,3.26208 10e-4,1.16711 0.007,1.2156 0.14353,1.36146 0.0781,0.0832 0.14205,0.18493 0.14205,0.2261 0,0.11209 0.0352,0.10141 0.82075,-0.24914 0.88311,-0.39408 1.92386,-0.74045 2.93576,-0.97705 0.68743,-0.16073 0.86873,-0.17731 1.95717,-0.17901 1.0436,-0.002 1.2734,0.0168 1.76761,0.14184 0.75537,0.1911 1.16373,0.38608 1.53407,0.7325 0.75201,0.70342 1.01809,1.86956 0.70851,3.10521 -0.16755,0.66874 -0.78446,1.89108 -1.28763,2.55126 -0.22496,0.29516 -0.73968,0.88847 -1.14383,1.31847 -0.40415,0.43 -0.71162,0.80189 -0.68327,0.82641 0.0711,0.0615 0.33704,0.1556 0.96868,0.34274 0.53475,0.15843 0.54052,0.16237 0.8681,0.59327 0.41712,0.54866 0.44917,0.81627 0.11674,0.9748 -0.22597,0.10775 -0.24229,0.15072 -0.33008,0.86881 -0.0233,0.19098 -0.096,0.45378 -0.16132,0.58399 -0.11801,0.23504 -0.12173,0.23677 -0.51218,0.2391 -0.26824,0.002 -0.59407,0.068 -1.02466,0.20877 l -0.63134,0.20641 -0.56403,-0.18092 -0.56403,-0.18093 -0.53797,0.53797 c -0.29588,0.29588 -0.52347,0.55247 -0.50574,0.57019 0.0546,0.0547 1.01491,-0.19944 1.40017,-0.3705 0.43945,-0.19512 0.54773,-0.19902 0.97863,-0.0352 0.28805,0.10948 0.37236,0.11684 0.62095,0.0543 0.20057,-0.0505 0.30841,-0.11799 0.35622,-0.22293 0.084,-0.18433 0.30538,-0.24706 0.60801,-0.17227 0.25037,0.0619 0.30237,0.18774 0.23216,0.56199 -0.0331,0.17627 -0.23222,0.35777 -1.42156,1.29561 l -1.3831,1.09062 -0.10562,0.43096 c -0.0581,0.23703 -0.0952,0.56204 -0.0824,0.72225 0.0231,0.28987 0.0208,0.29352 -0.45126,0.7435 -0.26093,0.24871 -0.70171,0.61252 -0.9795,0.80846 -0.85382,0.60225 -1.31293,1.02001 -2.3168,2.10814 -0.78743,0.85352 -1.03727,1.17209 -1.35031,1.72182 -0.21127,0.371 -0.52685,0.89218 -0.70129,1.15819 -0.17445,0.266 -0.39387,0.67523 -0.48762,0.90939 -0.13728,0.34293 -0.26017,0.5129 -0.63174,0.87375 -0.4291,0.41673 -0.47568,0.48883 -0.66738,1.03298 -0.16343,0.4639 -0.1988,0.64685 -0.17092,0.88388 0.0476,0.4043 -0.14692,0.6844 -0.70378,1.01363 -1.1794,0.69729 -1.70327,0.84199 -2.62975,0.72638 z m -9.92421,-9.81158 c 0.87085,-0.13097 2.96149,-0.71847 3.1846,-0.89492 0.0434,-0.0343 0.0789,-0.15805 0.0789,-0.27495 0,-0.18054 -0.0651,-0.27446 -0.43231,-0.62395 -0.39593,-0.37681 -0.44369,-0.45061 -0.56763,-0.87715 -0.0956,-0.32888 -0.23918,-0.61169 -0.48878,-0.96246 -0.56694,-0.79678 -0.51524,-0.77543 -0.85577,-0.35334 -1.13805,1.41061 -1.98044,2.90526 -2.05734,3.65031 -0.0294,0.2854 -0.0182,0.33324 0.0847,0.35964 0.21313,0.0547 0.5911,0.0464 1.0536,-0.0232 z m 20.52223,-12.1956 c 0.70694,-0.70316 1.45265,-1.4928 1.65712,-1.75476 0.45799,-0.58673 0.91096,-1.46056 0.9537,-1.83978 l 0.032,-0.28375 -0.36484,-0.0733 c -0.91603,-0.18396 -2.18957,-0.041 -3.52174,0.39541 -0.62315,0.20413 -2.72302,1.11389 -2.8392,1.23008 -0.0822,0.0822 0.0614,0.31882 0.36769,0.60565 0.25971,0.2432 0.27137,0.27056 0.31514,0.73963 0.025,0.2679 0.0777,0.52935 0.11716,0.58101 0.10311,0.13506 1.89337,1.67394 1.95012,1.67629 0.0261,10e-4 0.62591,-0.57335 1.33286,-1.27651 z"
         style="opacity:0.70499998;fill:#599bc1;fill-opacity:1;fill-rule:nonzero;stroke:none;stroke-width:0.89839947;stroke-linecap:butt;stroke-linejoin:round;stroke-miterlimit:4;stroke-dasharray:none;stroke-opacity:1" />
    </g>
  </g>
</svg>
